<svg xmlns="http://www.w3.org/2000/svg" width="189.572" height="189.571" viewBox="0 0 189.572 189.571">
  <g id="Group_4" data-name="Group 4" transform="translate(-2075.353 -154.809)">
    <path id="Path_8" data-name="Path 8" d="M5,0" transform="translate(2170.705 302.244) rotate(1)" fill="none" stroke="#000" stroke-linecap="round" stroke-width="2"/>
    <path id="Path_6" data-name="Path 6" d="M24.669,19.6a51.553,51.553,0,0,1,72.909,0c14.177,14.177,32.1,73.4,39.735,102.887a8.017,8.017,0,0,1-9.769,9.769C98.055,124.627,38.9,106.738,24.669,92.509A51.553,51.553,0,0,1,24.669,19.6Z" transform="matrix(-0.695, -0.719, 0.719, -0.695, 2171.964, 350.146)" fill="rgba(255,168,29,0.69)" stroke="#000" stroke-linecap="round" stroke-linejoin="round" stroke-width="6"/>
    <line id="Line_27" data-name="Line 27" x2="64" y2="64" transform="matrix(-0.695, -0.719, 0.719, -0.695, 2170.349, 254.535)" fill="none" stroke="#000" stroke-linecap="round" stroke-linejoin="round" stroke-width="8"/>
    <path id="Path_7" data-name="Path 7" d="M2.35,1.777" transform="matrix(-0.695, -0.719, 0.719, -0.695, 2170, 341.313)" fill="rgba(255,168,29,0.69)" stroke="#000" stroke-linecap="round" stroke-width="1"/>
    <line id="Line_34" data-name="Line 34" x2="64" transform="translate(2138.138 336.389)" fill="none" stroke="#000" stroke-linecap="round" stroke-width="6"/>
    <circle id="Ellipse_5" data-name="Ellipse 5" cx="16" cy="16" r="16" transform="matrix(-0.695, -0.719, 0.719, -0.695, 2169.743, 293.896)" fill="rgba(72,44,0,0.85)" stroke="#000" stroke-linecap="round" stroke-linejoin="round" stroke-width="6"/>
  </g>
</svg>
